<?xml version="1.0" standalone="no"?>
<!DOCTYPE svg PUBLIC "-//W3C//DTD SVG 20010904//EN"
 "http://www.w3.org/TR/2001/REC-SVG-20010904/DTD/svg10.dtd">
<svg version="1.0" xmlns="http://www.w3.org/2000/svg"
 width="512.000000pt" height="512.000000pt" viewBox="0 0 512.000000 512.000000"
 preserveAspectRatio="xMidYMid meet">
<metadata>
Created by potrace 1.14, written by Peter Selinger 2001-2017
</metadata>
<g transform="translate(0.000000,512.000000) scale(0.100000,-0.100000)"
fill="#000000" stroke="none">
<path d="M3000 4266 l0 -184 -32 -6 c-18 -3 -47 -8 -64 -11 -38 -6 -439 -81
-509 -95 -27 -5 -61 -11 -75 -14 -33 -5 -297 -55 -335 -63 -16 -4 -37 -7 -45
-8 -17 -3 -73 -13 -110 -20 -32 -7 -42 -9 -210 -40 -77 -14 -150 -28 -162 -31
-13 -2 -39 -7 -58 -10 -129 -20 -244 -49 -298 -76 -122 -58 -232 -204 -261
-346 -7 -36 -11 -330 -11 -909 0 -950 -2 -913 67 -1046 44 -83 134 -169 218
-208 40 -19 131 -41 275 -69 118 -23 224 -44 235 -46 11 -2 36 -7 55 -10 19
-3 51 -9 70 -14 19 -5 49 -11 65 -14 33 -6 116 -22 155 -31 14 -3 39 -8 55
-11 17 -3 129 -25 250 -49 201 -40 645 -127 705 -139 14 -2 63 -12 110 -21 47
-9 96 -19 110 -22 13 -2 56 -11 95 -19 38 -9 93 -19 120 -25 28 -5 84 -16 125
-24 41 -8 86 -17 100 -20 14 -3 36 -7 50 -10 60 -14 181 -12 242 3 170 43 301
183 343 369 14 60 15 226 13 1413 -2 740 -6 1355 -10 1368 -4 13 -10 33 -13
45 -36 129 -133 251 -242 302 -115 55 -220 62 -390 27 l-93 -19 -1 26 c0 14
-1 74 -1 134 l-1 107 -269 0 -268 0 0 -184z"/>
</g>
</svg>
